<svg xmlns="http://www.w3.org/2000/svg" width="83.87mm" height="9.7mm" viewBox="0 0 237.75 27.49"><defs><style>.a{fill:#fff;}.b{fill:#00ace9;}</style></defs><title>partner</title><path class="a" d="M13.43,16.43c-1.17-.69-2.14-1.06-5.21-1.78-2.58-.6-3.39-1.21-3.39-2.59A2.48,2.48,0,0,1,7.57,9.84a2.46,2.46,0,0,1,2.71,2.42h4.43V6.82H11.33V8.2A5.34,5.34,0,0,0,6.89,6.46c-4,0-6.89,2.5-6.89,6,0,2.84,1.73,4.77,5,5.69l.84.26.82.19.8.24c.89.25,1.57.49,1.89.61A2.1,2.1,0,0,1,11,21.51c0,1.49-1.17,2.41-3,2.41A3,3,0,0,1,4.7,21H0v5.9H3.54V25.18a6.55,6.55,0,0,0,5.2,2.09c4.16,0,7.11-2.58,7.11-6.21A5.37,5.37,0,0,0,13.43,16.43Z"/><path class="a" d="M27.66,6.26A10.62,10.62,0,1,0,38.2,16.78,10.58,10.58,0,0,0,27.66,6.26Zm0,16.7a6.1,6.1,0,0,1,0-12.19,6,6,0,0,1,5.89,6.09A6,6,0,0,1,27.66,23Z"/><path class="a" d="M58.72,6.82H51.55V11.1h2.62v6.74c0,3.1-1.61,4.92-4.32,4.92S45.7,20.94,45.7,18V6.82H38.52V11.1h2.62v8.23c0,4.68,3,7.94,7.34,7.94a7.36,7.36,0,0,0,6.09-3v2.67h6.82V22.63H58.72Z"/><polygon class="a" points="70.19 11.1 73.66 11.1 73.66 6.82 70.19 6.82 70.19 0 65.63 0 65.63 6.82 62.45 6.82 62.45 11.1 65.63 11.1 65.63 26.92 70.19 26.92 70.19 22.63 70.19 11.1"/><polygon class="b" points="172.53 11.1 176 11.1 176 6.82 172.53 6.82 172.53 0 167.97 0 167.97 6.82 164.78 6.82 164.78 11.1 167.97 11.1 167.97 26.92 172.53 26.92 172.53 22.63 172.53 11.1"/><path class="a" d="M95.67,15.21c0-5.29-2.91-8.75-7.42-8.75a6.66,6.66,0,0,0-6,3.35V0H75.09V4.28h2.63V22.63H75.09v4.29H84.9V22.63H82.27V16.06c0-3.23,1.66-5.09,4.53-5.09a4.16,4.16,0,0,1,3.34,1.5c.77.92,1,1.78,1,4v6.17H88.48v4.29h9.81V22.63H95.67Z"/><path class="b" d="M109.83,6.26A10.46,10.46,0,0,0,99.38,16.91,10.45,10.45,0,0,0,110,27.48a10.33,10.33,0,0,0,9.56-6.42h-4.8A5.5,5.5,0,0,1,110,23.44a6.05,6.05,0,0,1-6.09-4.79h16.25a13.13,13.13,0,0,0,.13-1.66C120.24,10.85,115.76,6.26,109.83,6.26Zm-6,8.88a6.18,6.18,0,0,1,6-4.85,6.39,6.39,0,0,1,6.2,4.85Z"/><path class="b" d="M138.06,9.64a7.31,7.31,0,0,0-6.32-3.18A10.45,10.45,0,0,0,121.49,17a10.23,10.23,0,0,0,10.07,10.28,7.5,7.5,0,0,0,6.5-3.06v2.71h7.23V22.63h-2.62V11.1h2.62V6.82h-7.23Zm-6,13.12a5.91,5.91,0,0,1-5.93-5.85,6,6,0,0,1,6-5.94,5.88,5.88,0,0,1,6,5.81A6,6,0,0,1,132.05,22.76Z"/><path class="b" d="M161.26,16.43c-1.17-.69-2.14-1.06-5.2-1.78-2.59-.6-3.39-1.22-3.39-2.59s1.17-2.22,2.75-2.22a2.45,2.45,0,0,1,2.7,2.42h4.43V6.82h-3.39V8.2a5.3,5.3,0,0,0-4.42-1.74c-4,0-6.91,2.5-6.91,6,0,2.83,1.73,4.77,5,5.69l.85.26.82.19.79.23c.89.26,1.58.5,1.89.62a2.1,2.1,0,0,1,1.62,2.09c0,1.5-1.17,2.42-3,2.42a3,3,0,0,1-3.31-2.9h-4.68v5.9h3.51V25.17a6.51,6.51,0,0,0,5.21,2.1c4.15,0,7.09-2.58,7.09-6.21A5.33,5.33,0,0,0,161.26,16.43Z"/><path class="b" d="M187.24,6.26a10.46,10.46,0,0,0-10.45,10.65,10.45,10.45,0,0,0,10.57,10.57,10.34,10.34,0,0,0,9.56-6.42h-4.79a5.51,5.51,0,0,1-4.77,2.38,6.06,6.06,0,0,1-6.09-4.79h16.27c.07-.78.11-1.14.11-1.66C197.65,10.85,193.17,6.26,187.24,6.26Zm-6,8.88a6.18,6.18,0,0,1,6-4.85,6.41,6.41,0,0,1,6.21,4.85Z"/><path class="b" d="M206.24,10.25V6.82h-6.86V11.1H202V22.63h-2.63v4.29h9.81V22.63h-2.62V17.06c0-3.5,2-5.52,5.68-5.77V6.57C209.19,6.82,207.48,7.87,206.24,10.25Z"/><path class="b" d="M235.09,22.63V14.44c0-2.5-.37-3.74-1.45-5.16a7.62,7.62,0,0,0-6.06-2.82,6.44,6.44,0,0,0-5.93,3.34v-3h-7.18V11.1h2.62V22.63h-2.62v4.29h9.81V22.63h-2.63V16.46c0-3.67,1.49-5.49,4.56-5.49,2.79,0,4.31,1.73,4.31,4.84v6.82h-2.58v4.29h9.81V22.63Z"/></svg>