<?xml version="1.0" encoding="utf-8"?>
<!-- Generator: Adobe Illustrator 22.1.0, SVG Export Plug-In . SVG Version: 6.00 Build 0)  -->
<svg version="1.1" id="Layer_1" xmlns="http://www.w3.org/2000/svg" xmlns:xlink="http://www.w3.org/1999/xlink" x="0px" y="0px"
	 width="17.5937px" height="21.9971px" viewBox="0 0 17.5937 21.9971" enable-background="new 0 0 17.5937 21.9971"
	 xml:space="preserve">
<title>map-pin-orange</title>
<path fill="none" stroke="#4A6F77" stroke-width="2" stroke-linecap="round" stroke-linejoin="round" d="M8.8171,1
	C4.511,0.9889,1.0112,4.4706,1,8.7766c0,0,0,0,0,0.0001l0,0c0,6.0597,7.5747,12.1195,7.7969,12.2205l0,0
	c0.2424-0.1818,7.7969-6.0597,7.7969-12.2205C16.5826,4.4864,13.1074,1.0111,8.8171,1L8.8171,1"/>
<path fill="none" stroke="#4A6F77" stroke-width="2" stroke-linecap="round" stroke-linejoin="round" d="M8.8171,11.9883
	c-1.7514,0-3.1713-1.4198-3.1713-3.1713s1.4198-3.1713,3.1713-3.1713s3.1713,1.4198,3.1713,3.1713S10.5685,11.9883,8.8171,11.9883
	L8.8171,11.9883L8.8171,11.9883"/>
</svg>
